<svg class="background" width="90" height="90" viewBox="0 0 46 46" fill="#222" xmlns="http://www.w3.org/2000/svg">
    <rect fill="#fff" class="front" width="34" height="34" x="6" y="6" />
    <path d="M15.543 32.1042C15.6228 31.9844 15.5929 31.8546 15.4531 31.7148C15.2734 31.5751 15.1337 31.5551 15.0339 31.6549C14.954 31.7747 14.9839 31.9045 15.1237 32.0443C15.3034 32.184 15.4431 32.204 15.543 32.1042ZM14.7044 30.8763C14.6046 30.7365 14.4848 30.6966 14.3451 30.7565C14.2253 30.8364 14.2253 30.9562 14.3451 31.1159C14.4848 31.2756 14.6046 31.3255 14.7044 31.2656C14.8242 31.1858 14.8242 31.056 14.7044 30.8763ZM13.4766 29.6784C13.5165 29.5985 13.4666 29.5187 13.3268 29.4388C13.1871 29.3989 13.1072 29.4188 13.0872 29.4987C13.0273 29.5985 13.0673 29.6784 13.207 29.7383C13.3668 29.7782 13.4566 29.7582 13.4766 29.6784ZM14.1055 30.3672C14.1454 30.3472 14.1604 30.3023 14.1504 30.2324C14.1404 30.1625 14.1055 30.1076 14.0456 30.0677C13.9258 29.9279 13.826 29.898 13.7461 29.9779C13.6662 30.0577 13.6762 30.1675 13.776 30.3073C13.8958 30.4271 14.0056 30.447 14.1055 30.3672ZM16.681 32.6133C16.7209 32.4735 16.6311 32.3637 16.4115 32.2839C16.2318 32.224 16.102 32.2639 16.0221 32.4036C15.9822 32.5434 16.072 32.6532 16.2917 32.7331C16.4714 32.793 16.6011 32.753 16.681 32.6133ZM17.9388 32.7031C17.9388 32.5434 17.819 32.4635 17.5794 32.4635C17.3798 32.4635 17.2799 32.5434 17.2799 32.7031C17.2799 32.8628 17.3898 32.9427 17.6094 32.9427C17.829 32.9427 17.9388 32.8628 17.9388 32.7031ZM19.1068 32.4935C19.0668 32.3537 18.9371 32.3038 18.7174 32.3438C18.4978 32.3837 18.408 32.4735 18.4479 32.6133C18.4878 32.773 18.6076 32.8329 18.8073 32.793C19.0069 32.753 19.1068 32.6532 19.1068 32.4935ZM38.3333 23C38.3333 18.7674 36.8359 15.1536 33.8411 12.1589C30.8464 9.16406 27.2326 7.66667 23 7.66667C18.7674 7.66667 15.1536 9.16406 12.1589 12.1589C9.16406 15.1536 7.66667 18.7674 7.66667 23C7.66667 26.3342 8.64497 29.334 10.6016 31.9993C12.5582 34.6647 15.0738 36.5165 18.1484 37.5547C18.5078 37.6146 18.7724 37.5647 18.9421 37.4049C19.1118 37.2452 19.1966 37.0456 19.1966 36.806C19.1966 35.7678 19.1866 34.8194 19.1667 33.9609C19.0469 33.9809 18.8921 34.0059 18.7025 34.0358C18.5128 34.0658 18.1584 34.0857 17.6393 34.0957C17.1202 34.1057 16.6411 34.0658 16.2018 33.9759C15.7626 33.8861 15.3283 33.6864 14.8991 33.377C14.4698 33.0675 14.1753 32.6532 14.0156 32.1341C13.5564 30.9562 12.9874 30.2174 12.3086 29.918C12.2687 29.898 12.2237 29.8631 12.1738 29.8132L11.9342 29.5736L11.7246 29.2891L11.8444 29.0645L12.4284 28.9596C12.5482 28.9596 12.6979 28.9796 12.8776 29.0195C13.0573 29.0595 13.3568 29.2142 13.776 29.4837C14.1953 29.7533 14.5247 30.1076 14.7643 30.5469C15.0838 31.1059 15.4581 31.5252 15.8874 31.8047C16.3166 32.0842 16.7509 32.224 17.1901 32.224C17.6293 32.224 18.0087 32.189 18.3281 32.1191C18.6476 32.0493 18.947 31.9544 19.2266 31.8346C19.3663 30.8963 19.6957 30.2075 20.2148 29.7682C19.2365 29.6484 18.378 29.4638 17.6393 29.2142C16.9006 28.9646 16.1719 28.5753 15.4531 28.0462C14.7344 27.5171 14.1803 26.7585 13.791 25.7702C13.4017 24.7819 13.207 23.589 13.207 22.1914C13.207 20.6141 13.7361 19.2465 14.7943 18.0885C14.3151 16.8507 14.365 15.4931 14.944 14.0156C15.3233 13.8958 15.8674 13.9707 16.5762 14.2402C17.2849 14.5098 17.8889 14.8043 18.388 15.1237L19.1667 15.6029C20.3247 15.2635 21.6024 15.0938 23 15.0938C24.3976 15.0938 25.6753 15.2635 26.8333 15.6029C27.0529 15.4631 27.3375 15.2834 27.6868 15.0638C28.0362 14.8442 28.5903 14.5846 29.349 14.2852C30.1076 13.9857 30.6766 13.8958 31.056 14.0156C31.635 15.4931 31.6849 16.8507 31.2057 18.0885C32.2639 19.2465 32.793 20.6141 32.793 22.1914C32.793 23.3294 32.6532 24.3327 32.3737 25.2012C32.0942 26.0697 31.7398 26.7684 31.3105 27.2975C30.8813 27.8266 30.3472 28.2708 29.7083 28.6302C29.0694 28.9896 28.4455 29.2491 27.8366 29.4089C27.2276 29.5686 26.5438 29.6884 25.7852 29.7682C26.4839 30.3872 26.8333 31.3355 26.8333 32.6133C26.8333 33.4119 26.8283 34.3003 26.8184 35.2786C26.8084 36.2569 26.8034 36.7661 26.8034 36.806C26.8034 37.0456 26.8882 37.2452 27.0579 37.4049C27.2276 37.5647 27.4922 37.6146 27.8516 37.5547C30.9262 36.5165 33.4418 34.6647 35.3984 31.9993C37.355 29.334 38.3333 26.3342 38.3333 23ZM46 8.625V37.375C46 39.7509 45.1565 41.7823 43.4694 43.4694C41.7823 45.1565 39.7509 46 37.375 46H8.625C6.24913 46 4.21766 45.1565 2.5306 43.4694C0.843533 41.7823 0 39.7509 0 37.375V8.625C0 6.24913 0.843533 4.21766 2.5306 2.5306C4.21766 0.843533 6.24913 0 8.625 0H37.375C39.7509 0 41.7823 0.843533 43.4694 2.5306C45.1565 4.21766 46 6.24913 46 8.625Z" />
</svg>