<svg width="90" height="90" viewBox="0 0 46 46" xmlns="http://www.w3.org/2000/svg">
    <rect class="front" width="34" height="34" x="6" y="6" />
    <path class="background" d="M41.0714 46H4.92857C2.20759 46 0 43.7924 0 41.0714V4.92857C0 2.20759 2.20759 0 4.92857 0H41.0714C43.7924 0 46 2.20759 46 4.92857V41.0714C46 43.7924 43.7924 46 41.0714 46ZM24.4478 14.9808L10.5143 28.9143L9.86741 34.7772C9.78527 35.5576 10.4424 36.225 11.233 36.1429L17.096 35.496L31.0295 21.5625C31.2656 21.3263 31.2656 20.9362 31.0295 20.6897L25.3308 14.9911C25.0741 14.7446 24.6839 14.7446 24.4478 14.9808ZM35.4241 13.6665L32.3335 10.5759C31.3683 9.61071 29.8076 9.61071 28.8527 10.5759L26.4808 12.9478C26.2446 13.1839 26.2446 13.5741 26.4808 13.8205L32.1795 19.5192C32.4156 19.7554 32.8058 19.7554 33.0522 19.5192L35.4241 17.1473C36.379 16.1924 36.379 14.6317 35.4241 13.6665Z" />
</svg>