<?xml version="1.0" encoding="utf-8"?>
<svg width="28px" height="40px" viewBox="0 0 28 40" version="1.1" xmlns="http://www.w3.org/2000/svg">
  <title>icon-file-small-webcode</title>
  <desc>Created with Sketch.</desc>
  <defs>
    <filter x="-50%" y="-50%" width="200%" height="200%" filterUnits="objectBoundingBox" id="filter-1">
      <feOffset dx="-1" dy="2" in="SourceAlpha" result="shadowOffsetOuter1"/>
      <feGaussianBlur stdDeviation="0" in="shadowOffsetOuter1" result="shadowBlurOuter1"/>
      <feColorMatrix values="0 0 0 0 0   0 0 0 0 0   0 0 0 0 0  0 0 0 0.07 0" in="shadowBlurOuter1" type="matrix" result="shadowMatrixOuter1"/>
      <feMerge>
        <feMergeNode in="shadowMatrixOuter1"/>
        <feMergeNode in="SourceGraphic"/>
      </feMerge>
    </filter>
  </defs>
  <g id="Drag-&amp;-Drop" stroke="none" stroke-width="1" fill="none" fill-rule="evenodd">
    <g id="Desktop-HD---Drag-&amp;-Drop,-Small-Icons---Dark" transform="translate(-436.000000, -524.000000)">
      <g id="Group" transform="translate(404.000000, 526.000000)">
        <g id="icon-file-small-webcode" transform="translate(34.000000, 0.000000)">
          <g id="Group" stroke-width="2">
            <path d="M0,3.00741988 C0,1.34646775 1.34252415,0 2.99998588,0 L15.1166483,0 C17.0807354,0 24,6.91885725 24,8.87457593 L24,33.0035574 C24,34.6584469 22.6582294,36 21.0089096,36 L2.99109042,36 C1.33915679,36 0,34.6544607 0,32.9925801 L0,3.00741988 Z" id="Rectangle-113" fill="#F4F6FC" style="stroke: rgb(217, 114, 69);"/>
            <path d="M17,1.09677336 C17,0.542040316 17.3147964,0.407097791 17.7133118,0.80556379 L23.1952031,6.28677654 C23.5891543,6.68067898 23.4552279,7 22.9039575,7 L18.0045574,7 C17.4497557,7 17,6.54676916 17,5.99556698 L17,1.09677336 Z" id="Path" fill="#F4F6FC" filter="url(#filter-1)" style="stroke: rgb(217, 114, 69);"/>
            <path d="M13,3 L4.49710104,3 C3.67027497,3 3,3.66579723 3,4.5 L3,6" id="Path-156" stroke-linecap="round" stroke-linejoin="round" opacity="0.6" style="stroke: rgb(217, 114, 69);"/>
          </g>
          <text id="/&gt;" line-spacing="18" style="fill: rgb(217, 114, 69); font-family: &quot;Source Code Pro&quot;; font-size: 12px; font-weight: 420; letter-spacing: -0.3px; white-space: pre; opacity: 0.8;"><tspan>
                        </tspan><tspan x="5.11901" y="26.4706">/
                        </tspan><tspan x="12.019" y="26.4706">&gt;
                    </tspan></text>
        </g>
      </g>
    </g>
  </g>
</svg>
